<?xml version="1.0" encoding="utf-8"?>
<!-- Generator: Adobe Illustrator 18.1.1, SVG Export Plug-In . SVG Version: 6.00 Build 0)  -->
<!DOCTYPE svg PUBLIC "-//W3C//DTD SVG 1.1//EN" "http://www.w3.org/Graphics/SVG/1.1/DTD/svg11.dtd">
<svg version="1.1" id="Calque_1" xmlns="http://www.w3.org/2000/svg" xmlns:xlink="http://www.w3.org/1999/xlink" x="0px" y="0px"
	 viewBox="0 177.9 595.3 466" enable-background="new 0 177.9 595.3 466" xml:space="preserve">
<path fill="#d4cfc7" d="M492.3,295.3c-19-19-50.3-19-69.3,0L291,427.2L163.4,299c-17.8-17.8-46.6-17.8-64.4,0l0,0c-17.8,17.8-17.8,46.6,0,64.4
	l158.3,158.3c1.2,1.8,3.1,3.7,4.3,4.9l0,0c4.9,4.9,10.4,8.6,16.6,11c5.5,2.5,11.7,3.7,17.8,3.1c12.9,0,25.2-4.9,35-14.1l161.4-162
	C511.4,345.6,511.4,314.3,492.3,295.3z"/>
</svg>
